<?xml version="1.0" standalone="no"?>
<!DOCTYPE svg PUBLIC "-//W3C//DTD SVG 20010904//EN"
 "http://www.w3.org/TR/2001/REC-SVG-20010904/DTD/svg10.dtd">
<svg version="1.0" xmlns="http://www.w3.org/2000/svg"
 width="62.000000pt" height="34.000000pt" viewBox="0 0 92.000000 64.000000"
 preserveAspectRatio="xMidYMid meet">

<g transform="translate(0.000000,64.000000) scale(0.100000,-0.100000)"
fill="#000000" stroke="none">
<path d="M190 470 c0 -136 -2 -160 -15 -160 -8 0 -15 -9 -15 -20 0 -11 -7 -20
-15 -20 -8 0 -15 7 -15 15 0 10 -10 15 -30 15 -17 0 -30 -5 -30 -13 0 -7 -9
-18 -20 -25 -18 -11 -20 -23 -20 -120 0 -71 4 -112 12 -120 15 -15 453 -17
548 -2 68 11 108 32 126 69 l11 22 14 -21 c16 -23 73 -36 114 -26 35 9 31 48
-5 56 -23 5 -25 11 -28 68 l-3 62 31 0 c28 0 30 3 30 35 0 32 -2 35 -30 35
-29 0 -30 2 -30 45 l0 45 -45 -22 c-34 -17 -45 -28 -45 -45 0 -28 -16 -30 -30
-4 -5 11 -28 27 -50 37 l-40 18 0 118 0 117 -210 0 -210 0 0 -160z m400 30 c0
-90 -3 -110 -15 -110 -11 0 -15 19 -17 93 l-3 92 -155 0 -155 0 0 -105 0 -105
68 -3 67 -3 0 -51 c0 -42 -3 -49 -16 -44 -9 3 -35 6 -59 6 -34 0 -44 4 -48 20
-3 12 -14 20 -26 20 -20 0 -21 4 -21 150 l0 150 190 0 190 0 0 -110z m-50 -27
l0 -87 -37 44 c-83 96 -68 91 -113 41 -35 -38 -42 -42 -56 -30 -14 12 -20 9
-45 -19 l-29 -32 0 85 0 85 140 0 140 0 0 -87z m-66 -37 l36 -44 -63 -4 c-87
-6 -103 10 -57 57 19 19 37 35 41 35 4 0 23 -20 43 -44z m-129 -36 c18 -20 17
-20 -25 -20 -42 0 -43 0 -25 20 10 11 21 20 25 20 4 0 15 -9 25 -20z m309 -71
c31 -24 34 -61 8 -87 -18 -18 -18 -19 5 -40 29 -26 31 -80 4 -113 -18 -22 -27
-24 -135 -27 l-116 -4 0 146 0 146 104 0 c89 0 107 -3 130 -21z m140 -64 c-17
-23 -18 -118 -3 -147 9 -16 8 -19 -3 -16 -9 3 -15 30 -18 87 -4 58 -9 85 -20
91 -10 6 -11 10 -3 10 7 0 16 12 19 26 l6 25 18 -28 c15 -24 15 -31 4 -48z
m-549 5 c5 -15 17 -20 63 -22 l57 -3 0 -105 0 -105 -155 0 -155 0 0 105 0 105
57 3 c46 2 58 7 63 22 4 14 15 20 35 20 20 0 31 -6 35 -20z m485 -52 c0 -30
-1 -30 -14 -13 -14 19 -11 45 5 45 5 0 9 -14 9 -32z"/>
<path d="M290 535 c-15 -18 -10 -45 13 -59 34 -22 73 27 47 59 -16 19 -44 19
-60 0z m46 -16 c10 -17 -13 -36 -27 -22 -12 12 -4 33 11 33 5 0 12 -5 16 -11z"/>
<path d="M510 265 c0 -13 8 -16 38 -13 20 2 37 8 37 13 0 6 -17 11 -37 13 -30
3 -38 0 -38 -13z"/>
<path d="M510 155 c0 -21 5 -25 29 -25 39 0 61 9 61 25 0 16 -22 25 -61 25
-24 0 -29 -4 -29 -25z"/>
<path d="M305 80 c-8 -26 6 -43 31 -38 13 2 19 12 19 28 0 34 -40 41 -50 10z
m35 -10 c0 -5 -4 -10 -10 -10 -5 0 -10 5 -10 10 0 6 5 10 10 10 6 0 10 -4 10
-10z"/>
</g>
</svg>
